HIERARCHY
ROOT hip
{
  OFFSET 0 0 0
  CHANNELS 6 Xposition Yposition Zposition Zrotation Yrotation Xrotation
  JOINT abdomen
  {
    OFFSET 0 20.6881 -0.73152
    CHANNELS 3 Zrotation Xrotation Yrotation
    JOINT chest
    {
      OFFSET 0 11.7043 -0.48768
      CHANNELS 3 Zrotation Xrotation Yrotation
      JOINT neck
      {
        OFFSET 0 22.1894 -2.19456
        CHANNELS 3 Zrotation Xrotation Yrotation
        JOINT head
        {
          OFFSET -0.24384 7.07133 1.2192
          CHANNELS 3 Zrotation Xrotation Yrotation
          JOINT leftEye
          {
            OFFSET 4.14528 8.04674 8.04672
            CHANNELS 3 Zrotation Xrotation Yrotation
            End Site
            {
              OFFSET 1 0 0
            }
          }
          JOINT rightEye
          {
            OFFSET -3.6576 8.04674 8.04672
            CHANNELS 3 Zrotation Xrotation Yrotation
            End Site
            {
              OFFSET 1 0 0
            }
          }
        }
      }
      JOINT rCollar
      {
        OFFSET -2.68224 19.2634 -4.8768
        CHANNELS 3 Zrotation Xrotation Yrotation
        JOINT rShldr
        {
          OFFSET -8.77824 -1.95073 1.46304
          CHANNELS 3 Zrotation Xrotation Yrotation
          JOINT rForeArm
          {
            OFFSET -28.1742 -1.7115 0.48768
            CHANNELS 3 Zrotation Xrotation Yrotation
            JOINT rHand
            {
              OFFSET -22.5879 0.773209 7.07136
              CHANNELS 3 Zrotation Xrotation Yrotation
              JOINT rThumb1
              {
                OFFSET -1.2192 -0.487915 3.41376
                CHANNELS 3 Zrotation Xrotation Yrotation
                JOINT rThumb2
                {
                  OFFSET -3.37035 -0.52449 3.41376
                  CHANNELS 3 Zrotation Xrotation Yrotation
                  End Site
                  {
                    OFFSET -1.78271 -1.18214 1.43049
                  }
                }
              }
              JOINT rIndex1
              {
                OFFSET -7.75947 0.938293 5.60832
                CHANNELS 3 Zrotation Xrotation Yrotation
                JOINT rIndex2
                {
                  OFFSET -2.54057 -0.884171 1.56538
                  CHANNELS 3 Zrotation Xrotation Yrotation
                  End Site
                  {
                    OFFSET -1.62519 -0.234802 1.16502
                  }
                }
              }
              JOINT rMid1
              {
                OFFSET -8.24714 1.18213 3.41376
                CHANNELS 3 Zrotation Xrotation Yrotation
                JOINT rMid2
                {
                  OFFSET -3.10165 -0.590103 1.0647
                  CHANNELS 3 Zrotation Xrotation Yrotation
                  End Site
                  {
                    OFFSET -2.48547 -0.328903 0.83742
                  }
                }
              }
              JOINT rRing1
              {
                OFFSET -8.82822 0.546677 1.51678
                CHANNELS 3 Zrotation Xrotation Yrotation
                JOINT rRing2
                {
                  OFFSET -2.60934 -0.819778 -0.0198488
                  CHANNELS 3 Zrotation Xrotation Yrotation
                  End Site
                  {
                    OFFSET -2.33842 -0.294052 0.168128
                  }
                }
              }
              JOINT rPinky1
              {
                OFFSET -8.27202 -0.0477905 -0.4584
                CHANNELS 3 Zrotation Xrotation Yrotation
                JOINT rPinky2
                {
                  OFFSET -1.82734 -0.647385 -0.700984
                  CHANNELS 3 Zrotation Xrotation Yrotation
                  End Site
                  {
                    OFFSET -1.69225 -0.51767 -0.607171
                  }
                }
              }
            }
          }
        }
      }
      JOINT lCollar
      {
        OFFSET 2.68224 19.2634 -4.8768
        CHANNELS 3 Zrotation Xrotation Yrotation
        JOINT lShldr
        {
          OFFSET 8.77824 -1.95073 1.46304
          CHANNELS 3 Zrotation Xrotation Yrotation
          JOINT lForeArm
          {
            OFFSET 28.1742 -1.7115 0.48768
            CHANNELS 3 Zrotation Xrotation Yrotation
            JOINT lHand
            {
              OFFSET 22.5879 0.773209 7.07136
              CHANNELS 3 Zrotation Xrotation Yrotation
              JOINT lThumb1
              {
                OFFSET 1.2192 -0.487915 3.41376
                CHANNELS 3 Zrotation Xrotation Yrotation
                JOINT lThumb2
                {
                  OFFSET 3.37035 -0.52449 3.41376
                  CHANNELS 3 Zrotation Xrotation Yrotation
                  End Site
                  {
                    OFFSET 1.78271 -1.18214 1.43049
                  }
                }
              }
              JOINT lIndex1
              {
                OFFSET 7.75947 0.938293 5.60832
                CHANNELS 3 Zrotation Xrotation Yrotation
                JOINT lIndex2
                {
                  OFFSET 2.54057 -0.884171 1.56538
                  CHANNELS 3 Zrotation Xrotation Yrotation
                  End Site
                  {
                    OFFSET 1.62519 -0.234802 1.16502
                  }
                }
              }
              JOINT lMid1
              {
                OFFSET 8.24714 1.18213 3.41376
                CHANNELS 3 Zrotation Xrotation Yrotation
                JOINT lMid2
                {
                  OFFSET 3.10165 -0.590103 1.0647
                  CHANNELS 3 Zrotation Xrotation Yrotation
                  End Site
                  {
                    OFFSET 2.48547 -0.328903 0.83742
                  }
                }
              }
              JOINT lRing1
              {
                OFFSET 8.82822 0.546677 1.51678
                CHANNELS 3 Zrotation Xrotation Yrotation
                JOINT lRing2
                {
                  OFFSET 2.60934 -0.819778 -0.0198488
                  CHANNELS 3 Zrotation Xrotation Yrotation
                  End Site
                  {
                    OFFSET 2.33842 -0.294052 0.168128
                  }
                }
              }
              JOINT lPinky1
              {
                OFFSET 8.27202 -0.0477905 -0.4584
                CHANNELS 3 Zrotation Xrotation Yrotation
                JOINT lPinky2
                {
                  OFFSET 1.82734 -0.647385 -0.700984
                  CHANNELS 3 Zrotation Xrotation Yrotation
                  End Site
                  {
                    OFFSET 1.69225 -0.51767 -0.607171
                  }
                }
              }
            }
          }
        }
      }
    }
  }
  JOINT rButtock
  {
    OFFSET -8.77824 4.35084 1.2192
    CHANNELS 3 Zrotation Xrotation Yrotation
    JOINT rThigh
    {
      OFFSET 0 -1.70687 -2.19456
      CHANNELS 3 Zrotation Xrotation Yrotation
      JOINT rShin
      {
        OFFSET 0 -36.8199 0.73152
        CHANNELS 3 Zrotation Xrotation Yrotation
        JOINT rFoot
        {
          OFFSET 0.73152 -45.1104 -5.12064
          CHANNELS 3 Zrotation Xrotation Yrotation
          End Site
          {
            OFFSET -1.1221 -3.69964 12.103
          }
        }
      }
    }
  }
  JOINT lButtock
  {
    OFFSET 8.77824 4.35084 1.2192
    CHANNELS 3 Zrotation Xrotation Yrotation
    JOINT lThigh
    {
      OFFSET 0 -1.70687 -2.19456
      CHANNELS 3 Zrotation Xrotation Yrotation
      JOINT lShin
      {
        OFFSET 0 -36.8199 0.73152
        CHANNELS 3 Zrotation Xrotation Yrotation
        JOINT lFoot
        {
          OFFSET -0.73152 -45.1104 -5.12064
          CHANNELS 3 Zrotation Xrotation Yrotation
          End Site
          {
            OFFSET 1.1221 -3.69964 12.103
          }
        }
      }
    }
  }
}
MOTION
Frames:	4
Frame Time:	0.03333
0.011043348670852804 62.309152024250025 0.11254065342832986 -2.599421501159668 -3.128638982772827 7.020993709564209 -2.7229537963867188 14.12082290649414 3.820948600769043 2.899813175201416 -9.411182403564453 1.4551193714141846 -5.192586421966553 14.566523551940918 -3.5902657508850098 9.172013282775879 -22.251676559448242 -5.212244510650635 -0.029703311622142792 0.005511792376637459 -0.019222509115934372 0.026283394545316696 0.027117272838950157 0.042317770421504974 0.21590526401996613 0.01773723214864731 -0.005828732158988714 46.354652404785156 39.83351135253906 17.57329750061035 -25.71305274963379 -26.017414093017578 68.01129150390625 -1.6119987964630127 -9.639802932739258 -1.6906836032867432 -0.02359565533697605 -0.026428334414958954 -0.0014014597982168198 0.031559281051158905 -0.04140900820493698 0.020529037341475487 -0.047042883932590485 0.040334608405828476 -0.01312911044806242 7.818239212036133 5.474244594573975 0.39461109042167664 -0.06781458109617233 0.25453102588653564 -0.09074660390615463 2.967273235321045 0.9308050274848938 0.018108591437339783 -0.003459018422290683 -0.024559851735830307 0.008493885397911072 10.24482250213623 0.8236039876937866 -0.07397352904081345 0.04838262125849724 0.04379451647400856 0.05560918524861336 2.244374990463257 -0.7545018196105957 -0.31963205337524414 0.07618547230958939 -0.010428941808640957 0.035377636551856995 -55.364994049072266 39.6506462097168 -25.043811798095703 24.901227951049805 -23.263147354125977 -64.61016082763672 1.9950928688049316 -14.120380401611328 2.133009672164917 0.027358250692486763 0.007418646011501551 -0.15422354638576508 -0.09023100137710571 0.01136743277311325 0.04586746543645859 -0.006108212284743786 -0.05312175303697586 0.13412296772003174 -7.798952102661133 5.334680557250977 -0.3343028724193573 0.02820938639342785 0.0010808405932039022 -0.004710161592811346 -2.975832223892212 1.03848397731781 -0.1708550900220871 -0.023280438035726547 0.0350816585123539 -0.010719935409724712 -10.308981895446777 0.6815661191940308 -0.06570563465356827 -0.054337259382009506 -0.038541506975889206 -0.1149011179804802 -2.2762649059295654 -0.7660742402076721 0.19296328723430634 -0.024138281121850014 -0.051685087382793427 0.058561086654663086 -24.50166130065918 -43.673789978027344 -18.68406105041504 -1.3606001138687134 65.56014251708984 2.839522123336792 -4.42689323425293 -11.966534614562988 -9.346512794494629 -0.008761517703533173 -0.02798623777925968 -0.0064030797220766544 29.627164840698242 -45.53740692138672 21.518573760986328 1.6958011388778687 65.86039733886719 -2.8070242404937744 4.824169158935547 -12.422019958496094 13.22516918182373
0.014975029672694285 62.51082701987299 0.2285102219025648 -3.1964704990386963 0.6663253307342529 10.479690551757812 -2.6810407638549805 14.571149826049805 3.824291229248047 2.605658769607544 -9.799881935119629 1.3151803016662598 -4.802302837371826 14.414288520812988 -3.5838193893432617 8.953872680664062 -21.820585250854492 -5.44200325012207 0.06583991646766663 -0.1352972537279129 -0.11967552453279495 0.10828232765197754 -0.028728947043418884 -0.043162450194358826 -0.15585580468177795 0.14538417756557465 0.16417425870895386 46.9307975769043 39.69281005859375 17.82246971130371 -25.767812728881836 -26.50887107849121 68.83502960205078 -1.5872136354446411 -11.460542678833008 -1.5719878673553467 0.16270630061626434 -0.12954320013523102 0.1486356556415558 0.059486858546733856 -0.11747600883245468 0.0002936932723969221 0.056745823472738266 0.14313744008541107 -0.05058549717068672 7.814852714538574 5.598272323608398 0.4303041100502014 -0.020669719204306602 0.014439156278967857 -0.1440717726945877 2.904524087905884 1.017288088798523 0.20645011961460114 0.155104860663414 0.007020522840321064 0.04442247375845909 10.266416549682617 0.6418769359588623 0.08529543876647949 0.15715956687927246 0.1049424260854721 0.12119849771261215 2.209906578063965 -0.8605960011482239 -0.2195160835981369 0.1666833460330963 -0.08735433220863342 9.969703387469053e-05 -54.59099578857422 40.61747741699219 -26.450239181518555 24.814905166625977 -23.45025634765625 -65.93101501464844 1.9697368144989014 -14.29591178894043 2.1447665691375732 0.02677726186811924 -0.1630212664604187 0.07309854030609131 0.2209290862083435 0.08166968077421188 -0.13989518582820892 -0.14947955310344696 0.07960175722837448 -0.14332307875156403 -7.869460105895996 5.407238483428955 -0.3821212649345398 0.14948390424251556 0.07134347409009933 -0.028723599389195442 -2.905266523361206 0.8492273092269897 -0.22918207943439484 0.16242928802967072 -0.0023473864421248436 -0.040641553699970245 -10.113883972167969 0.9104345440864563 -0.1654367446899414 0.05592216178774834 -0.11252584308385849 -0.17346005141735077 -2.2606630325317383 -0.6401798129081726 0.21497373282909393 0.041069574654102325 -0.1773330718278885 0.09772756695747375 -25.384185791015625 -41.19127655029297 -19.22902488708496 -1.4614603519439697 64.21678161621094 2.3691964149475098 -4.65375280380249 -11.640680313110352 -9.689311027526855 -0.19365942478179932 -0.04488423094153404 0.045007795095443726 30.714570999145508 -42.28924560546875 21.150835037231445 1.7058405876159668 67.11839294433594 -2.729764223098755 5.180429935455322 -12.095399856567383 13.125295639038086
-0.008154018569378738 59.02000612753868 0.29464950495673703 4.879297733306885 16.16828727722168 6.360945224761963 -11.699559211730957 13.392906188964844 -1.1968917846679688 4.826542854309082 -9.477874755859375 -0.6206330060958862 -8.317500114440918 17.198101043701172 -11.568161964416504 12.01974868774414 -24.8137149810791 -20.014049530029297 -0.04682685434818268 -0.4125458300113678 -0.2764303386211395 -0.07568763196468353 -0.0767945721745491 0.17462410032749176 0.5797837376594543 0.20405849814414978 -0.23467059433460236 51.46323776245117 26.195486068725586 17.610551834106445 -19.21833610534668 -11.298011779785156 39.49837112426758 -0.39551252126693726 6.899430751800537 1.2572176456451416 0.06697791814804077 0.024338100105524063 -0.20227253437042236 -0.24969470500946045 0.007677062414586544 0.08701363205909729 -0.18286217749118805 0.25345608592033386 -0.028898341581225395 8.010468482971191 5.765193939208984 0.13604134321212769 0.09450636804103851 -0.045132290571928024 -0.34586694836616516 2.9251554012298584 1.0919302701950073 0.27084028720855713 -0.10104542970657349 -0.0902956947684288 0.2241266965866089 10.309395790100098 0.4898298978805542 0.05901996046304703 -0.10843963176012039 0.13267634809017181 0.16041257977485657 2.2870993614196777 -0.9619674682617188 -0.41743963956832886 0.22004549205303192 0.22711962461471558 -0.3684289753437042 -69.48313903808594 46.029537200927734 -7.939441204071045 21.6563720703125 -13.02000904083252 -47.805667877197266 1.0590176582336426 -8.874212265014648 1.330573320388794 0.2941654920578003 -0.3808061182498932 -0.3419196307659149 -0.04577051103115082 0.2723035514354706 -0.1018294095993042 -0.2742381691932678 -0.22627831995487213 0.5439892411231995 -7.781379222869873 5.425567626953125 -0.11417167633771896 0.4846590459346771 -0.1922961324453354 0.006383330561220646 -2.9326817989349365 1.2944574356079102 -0.3397124707698822 0.14300400018692017 0.02416909858584404 0.30313801765441895 -10.280241012573242 0.36521297693252563 -0.20503181219100952 0.04132436588406563 0.06711151450872421 -0.06963925808668137 -2.1062779426574707 -0.43963196873664856 0.49512264132499695 -0.48864686489105225 0.36374610662460327 0.24336448311805725 -41.7387580871582 -58.67306137084961 -30.381690979003906 -3.103553533554077 71.17151641845703 2.8410332202911377 1.6294763088226318 -2.736231803894043 4.181737899780273 0.03223862126469612 -0.30333760380744934 -0.09747786074876785 9.513601303100586 -6.099247455596924 7.444653511047363 -0.09133574366569519 42.05760192871094 -2.5556833744049072 11.216106414794922 -17.712419509887695 29.63252830505371
-0.2220237833468741 57.677067993309116 0.26677454245856297 7.100725173950195 16.99741554260254 9.065581321716309 -16.754016876220703 10.890624046325684 -4.868951320648193 6.6698384284973145 -8.50070858001709 -1.2782812118530273 -7.937988758087158 17.92278480529785 -12.718015670776367 14.05916976928711 -24.802955627441406 -21.867916107177734 -0.21358780562877655 -0.0024830535985529423 0.15896722674369812 0.04500284045934677 0.3435310423374176 0.3064082860946655 -0.33930444717407227 0.08632425218820572 -0.46818384528160095 60.31199264526367 28.298643112182617 6.204827785491943 -16.441341400146484 -9.860265731811523 27.28411293029785 0.24693134427070618 8.997842788696289 1.655408263206482 0.255363792181015 -0.07717668265104294 -0.36426854133605957 0.1194131150841713 -0.06945313513278961 0.5745214819908142 0.13644106686115265 0.06553052365779877 -0.17261777818202972 8.518411636352539 5.752604961395264 0.41899290680885315 -0.14903761446475983 -0.06880262494087219 -0.2531469762325287 2.8728482723236084 0.9994127750396729 0.2952801585197449 0.06367139518260956 0.20755450427532196 -0.05795321613550186 10.122982025146484 0.5724610090255737 0.19424539804458618 0.040133725851774216 0.3921924829483032 -0.122282475233078 2.1996240615844727 -0.6727791428565979 -0.5591263175010681 0.12527033686637878 -0.29440176486968994 0.13160917162895203 -69.36300659179688 37.675445556640625 -11.344473838806152 15.409449577331543 -7.854372501373291 -25.450101852416992 -0.29400718212127686 13.793567657470703 -1.3078296184539795 -0.10104832053184509 -0.44192731380462646 -0.3953433930873871 0.13487663865089417 0.19742314517498016 -0.15341658890247345 -0.26194268465042114 0.006614581681787968 0.1194513663649559 -7.715022087097168 5.348656177520752 -0.3226958215236664 0.13490894436836243 0.0692606270313263 -0.26322370767593384 -3.0238149166107178 1.4334322214126587 -0.5755595564842224 -0.021075613796710968 -0.23026306927204132 -0.11048246175050735 -10.250227928161621 0.47045373916625977 -0.3316533863544464 -0.017336737364530563 0.23137621581554413 -0.0018279068171977997 -1.7427325248718262 -0.6042405366897583 0.20129938423633575 0.2999187707901001 -0.15359754860401154 -0.06503741443157196 -58.20405578613281 -63.536075592041016 -46.881465911865234 -3.8373188972473145 73.29812622070312 3.972231149673462 1.0016793012619019 -2.9582481384277344 7.98544454574585 -0.23706622421741486 -0.14998067915439606 -0.17789091169834137 5.7783308029174805 11.241108894348145 6.523598670959473 0.041963618248701096 31.495695114135742 -2.6974146366119385 12.781243324279785 -19.161178588867188 36.747493743896484
